<svg width="519" height="150" viewBox="0 0 519 150" fill="none" xmlns="http://www.w3.org/2000/svg">
<path d="M135.604 116.481L77.5764 150L19.4182 116.402C19.0593 112.825 19.0593 109.221 19.4182 105.644C21.0928 105.644 22.4996 105.565 23.9007 105.644C25.1879 105.736 26.5492 105.297 27.8877 106.009C28.3091 107.717 27.9218 109.426 28.1724 111.447C44.3424 120.986 60.9167 130.24 77.5252 140C94.1052 130.507 110.56 120.861 127.02 111.635C127.886 107.41 127.174 103.475 127.174 99.5454C127.174 85.4037 127.174 71.262 127.174 57.1203V54.159C124.07 52.4506 120.852 50.9074 117.805 48.732C119.616 46.4542 121.735 44.7116 123.808 42.5533C127.909 44.3756 131.577 47.0293 135.638 49.1193L135.604 116.481ZM129.213 109.078L129.105 109.238H129.281L129.213 109.078Z" fill="#375CFD"/>
<path d="M137.696 19.1495C138.005 20.1671 137.21 20.8646 136.702 21.3619C130.628 27.3074 124.902 33.6073 118.668 39.4156C115.852 42.0339 113.314 45.0409 110.486 47.6821C105.498 52.3299 100.481 56.9376 95.3269 61.4024C90.6871 65.4042 86.0131 69.406 81.1619 73.1619C73.1966 79.3418 64.9913 85.1672 56.1689 90.0722C50.2173 93.4481 43.9255 96.1845 37.3984 98.2358C31.6858 99.9797 25.6585 100.438 19.7479 99.5793C14.2682 98.8132 9.75417 95.7204 6.30864 91.3528C2.93167 87.0709 1.13176 82.0744 0.0346787 76.7807C-0.0115596 76.2901 -0.0115596 75.7963 0.0346787 75.3057C0.843113 75.6314 1.52047 76.2166 1.96029 76.9693C5.82222 82.1534 11.543 85.6371 17.9195 86.6879C24.7305 87.9284 31.4159 87.3625 38.0498 85.5445C45.6489 83.4612 53.0029 80.5692 59.9858 76.9179C66.3464 73.6599 72.5265 70.0607 78.4992 66.136C84.7388 61.9398 90.9957 57.7551 96.9839 53.2217C101.938 49.4715 106.915 45.727 111.652 41.6795C115.954 37.9978 120.337 34.4191 124.514 30.5889C127.942 27.4675 131.456 24.5005 134.799 21.2876C135.599 20.3815 136.588 19.6615 137.696 19.1781V19.1495Z" fill="#FFD839"/>
<path d="M110.638 35.0783C108.505 37.2125 106.19 38.8232 103.778 40.7184L77.5213 25.6194L28.0681 54.1611V81.6442C25.1672 81.9743 22.4994 82.1564 19.8658 81.2458C19.2969 80.5629 19.5358 79.7718 19.5358 79.049C19.5358 70.8024 19.5358 62.5444 19.5358 54.3148C19.5358 52.9033 19.7065 51.4691 19.149 50.3878C19.2894 49.8868 19.5386 49.423 19.8788 49.0294C20.219 48.6359 20.6419 48.3224 21.1172 48.1113C26.5721 44.9868 32.1067 41.9534 37.5447 38.8118C43.9723 35.1068 50.3374 31.2993 56.7423 27.5601C63.1472 23.821 69.5976 20.1103 76.0139 16.3654C77.1515 15.7052 78.0844 15.9044 79.1652 16.5362C83.6418 19.1314 88.1866 21.6185 92.6632 24.2137C98.0443 27.3268 103.374 30.5196 108.744 33.6441C109.476 33.9721 110.123 34.4626 110.638 35.0783Z" fill="#375CFD"/>
<path d="M112.766 53.7235V115.527L95.2221 125.532C94.7103 123.5 94.509 92.0191 94.8483 69.6981L112.766 53.7235Z" fill="#D85EB4"/>
<path d="M86.7012 130.551L77.6242 135.638L68.6162 130.568V89.1338C74.6695 85.1847 80.5388 80.7212 86.7012 76.0634V130.551Z" fill="#F15B50"/>
<path d="M60.6377 94.1494V125.532C54.3383 122.364 48.6632 118.588 42.5527 115.312V102.735C48.52 100.339 54.6075 97.9026 60.6377 94.1494Z" fill="#FF9E21"/>
<path d="M155.098 0C155.207 0.520615 155.368 0.806667 155.305 1.03551C154.851 2.70605 147.83 20.0751 147.094 21.2766C145.841 18.5591 145.64 15.7043 144.685 13.1069C141.305 11.7796 137.682 12.4261 134.043 11.2304C141.138 7.43736 148.198 4.00473 155.098 0Z" fill="#FFD839"/>
<path d="M137.802 19.1497C138.114 18.4574 138.669 17.9029 139.361 17.5903L139.324 17.554C139.324 18.5935 138.877 19.1861 137.765 19.1133L137.802 19.1497Z" fill="#F38B24"/>
<path d="M139.407 17.5541C139.466 17.2682 139.446 16.8869 139.888 17.0702C139.934 17.5615 139.624 17.4955 139.361 17.5028L139.407 17.5541Z" fill="#F38B24"/>
<path d="M179.054 59.975V71.35H194.329V78.565H179.054V90.59H196.279V98H169.954V52.565H196.279V59.975H179.054ZM216.898 67.255C218.068 65.5217 219.672 64.1133 221.708 63.03C223.788 61.9467 226.15 61.405 228.793 61.405C231.87 61.405 234.643 62.1633 237.113 63.68C239.627 65.1967 241.598 67.3633 243.028 70.18C244.502 72.9533 245.238 76.1817 245.238 79.865C245.238 83.5483 244.502 86.82 243.028 89.68C241.598 92.4967 239.627 94.685 237.113 96.245C234.643 97.805 231.87 98.585 228.793 98.585C226.107 98.585 223.745 98.065 221.708 97.025C219.715 95.9417 218.112 94.555 216.898 92.865V98H207.798V49.9H216.898V67.255ZM235.943 79.865C235.943 77.6983 235.488 75.835 234.578 74.275C233.712 72.6717 232.542 71.4583 231.068 70.635C229.638 69.8117 228.078 69.4 226.388 69.4C224.742 69.4 223.182 69.8333 221.708 70.7C220.278 71.5233 219.108 72.7367 218.198 74.34C217.332 75.9433 216.898 77.8283 216.898 79.995C216.898 82.1617 217.332 84.0467 218.198 85.65C219.108 87.2533 220.278 88.4883 221.708 89.355C223.182 90.1783 224.742 90.59 226.388 90.59C228.078 90.59 229.638 90.1567 231.068 89.29C232.542 88.4233 233.712 87.1883 234.578 85.585C235.488 83.9817 235.943 82.075 235.943 79.865ZM271.091 98.585C267.624 98.585 264.504 97.8267 261.731 96.31C258.958 94.75 256.769 92.5617 255.166 89.745C253.606 86.9283 252.826 83.6783 252.826 79.995C252.826 76.3117 253.628 73.0617 255.231 70.245C256.878 67.4283 259.109 65.2617 261.926 63.745C264.743 62.185 267.884 61.405 271.351 61.405C274.818 61.405 277.959 62.185 280.776 63.745C283.593 65.2617 285.803 67.4283 287.406 70.245C289.053 73.0617 289.876 76.3117 289.876 79.995C289.876 83.6783 289.031 86.9283 287.341 89.745C285.694 92.5617 283.441 94.75 280.581 96.31C277.764 97.8267 274.601 98.585 271.091 98.585ZM271.091 90.655C272.738 90.655 274.276 90.265 275.706 89.485C277.179 88.6617 278.349 87.4483 279.216 85.845C280.083 84.2417 280.516 82.2917 280.516 79.995C280.516 76.5717 279.606 73.95 277.786 72.13C276.009 70.2667 273.821 69.335 271.221 69.335C268.621 69.335 266.433 70.2667 264.656 72.13C262.923 73.95 262.056 76.5717 262.056 79.995C262.056 83.4183 262.901 86.0617 264.591 87.925C266.324 89.745 268.491 90.655 271.091 90.655ZM313.581 98.585C310.635 98.585 307.991 98.065 305.651 97.025C303.311 95.9417 301.448 94.49 300.061 92.67C298.718 90.85 297.981 88.835 297.851 86.625H307.016C307.19 88.0117 307.861 89.16 309.031 90.07C310.245 90.98 311.74 91.435 313.516 91.435C315.25 91.435 316.593 91.0883 317.546 90.395C318.543 89.7017 319.041 88.8133 319.041 87.73C319.041 86.56 318.435 85.6933 317.221 85.13C316.051 84.5233 314.166 83.8733 311.566 83.18C308.88 82.53 306.67 81.8583 304.936 81.165C303.246 80.4717 301.773 79.41 300.516 77.98C299.303 76.55 298.696 74.6217 298.696 72.195C298.696 70.2017 299.26 68.3817 300.386 66.735C301.556 65.0883 303.203 63.7883 305.326 62.835C307.493 61.8817 310.028 61.405 312.931 61.405C317.221 61.405 320.645 62.4883 323.201 64.655C325.758 66.7783 327.166 69.66 327.426 73.3H318.716C318.586 71.87 317.98 70.7433 316.896 69.92C315.856 69.0533 314.448 68.62 312.671 68.62C311.025 68.62 309.746 68.9233 308.836 69.53C307.97 70.1367 307.536 70.9817 307.536 72.065C307.536 73.2783 308.143 74.21 309.356 74.86C310.57 75.4667 312.455 76.095 315.011 76.745C317.611 77.395 319.756 78.0667 321.446 78.76C323.136 79.4533 324.588 80.5367 325.801 82.01C327.058 83.44 327.708 85.3467 327.751 87.73C327.751 89.81 327.166 91.6733 325.996 93.32C324.87 94.9667 323.223 96.2667 321.056 97.22C318.933 98.13 316.441 98.585 313.581 98.585ZM352.251 98.585C349.305 98.585 346.661 98.065 344.321 97.025C341.981 95.9417 340.118 94.49 338.731 92.67C337.388 90.85 336.651 88.835 336.521 86.625H345.686C345.86 88.0117 346.531 89.16 347.701 90.07C348.915 90.98 350.41 91.435 352.186 91.435C353.92 91.435 355.263 91.0883 356.216 90.395C357.213 89.7017 357.711 88.8133 357.711 87.73C357.711 86.56 357.105 85.6933 355.891 85.13C354.721 84.5233 352.836 83.8733 350.236 83.18C347.55 82.53 345.34 81.8583 343.606 81.165C341.916 80.4717 340.443 79.41 339.186 77.98C337.973 76.55 337.366 74.6217 337.366 72.195C337.366 70.2017 337.93 68.3817 339.056 66.735C340.226 65.0883 341.873 63.7883 343.996 62.835C346.163 61.8817 348.698 61.405 351.601 61.405C355.891 61.405 359.315 62.4883 361.871 64.655C364.428 66.7783 365.836 69.66 366.096 73.3H357.386C357.256 71.87 356.65 70.7433 355.566 69.92C354.526 69.0533 353.118 68.62 351.341 68.62C349.695 68.62 348.416 68.9233 347.506 69.53C346.64 70.1367 346.206 70.9817 346.206 72.065C346.206 73.2783 346.813 74.21 348.026 74.86C349.24 75.4667 351.125 76.095 353.681 76.745C356.281 77.395 358.426 78.0667 360.116 78.76C361.806 79.4533 363.258 80.5367 364.471 82.01C365.728 83.44 366.378 85.3467 366.421 87.73C366.421 89.81 365.836 91.6733 364.666 93.32C363.54 94.9667 361.893 96.2667 359.726 97.22C357.603 98.13 355.111 98.585 352.251 98.585ZM428.964 66.67C428.964 69.0967 428.379 71.3717 427.209 73.495C426.083 75.6183 424.284 77.33 421.814 78.63C419.388 79.93 416.311 80.58 412.584 80.58H404.979V98H395.879V52.63H412.584C416.094 52.63 419.084 53.2367 421.554 54.45C424.024 55.6633 425.866 57.3317 427.079 59.455C428.336 61.5783 428.964 63.9833 428.964 66.67ZM412.194 73.235C414.708 73.235 416.571 72.6717 417.784 71.545C418.998 70.375 419.604 68.75 419.604 66.67C419.604 62.25 417.134 60.04 412.194 60.04H404.979V73.235H412.194ZM447.775 67.58C448.945 65.6733 450.462 64.1783 452.325 63.095C454.232 62.0117 456.399 61.47 458.825 61.47V71.025H456.42C453.56 71.025 451.394 71.6967 449.92 73.04C448.49 74.3833 447.775 76.7233 447.775 80.06V98H438.675V61.99H447.775V67.58ZM484.195 98.585C480.728 98.585 477.608 97.8267 474.835 96.31C472.061 94.75 469.873 92.5617 468.27 89.745C466.71 86.9283 465.93 83.6783 465.93 79.995C465.93 76.3117 466.731 73.0617 468.335 70.245C469.981 67.4283 472.213 65.2617 475.03 63.745C477.846 62.185 480.988 61.405 484.455 61.405C487.921 61.405 491.063 62.185 493.88 63.745C496.696 65.2617 498.906 67.4283 500.51 70.245C502.156 73.0617 502.98 76.3117 502.98 79.995C502.98 83.6783 502.135 86.9283 500.445 89.745C498.798 92.5617 496.545 94.75 493.685 96.31C490.868 97.8267 487.705 98.585 484.195 98.585ZM484.195 90.655C485.841 90.655 487.38 90.265 488.81 89.485C490.283 88.6617 491.453 87.4483 492.32 85.845C493.186 84.2417 493.62 82.2917 493.62 79.995C493.62 76.5717 492.71 73.95 490.89 72.13C489.113 70.2667 486.925 69.335 484.325 69.335C481.725 69.335 479.536 70.2667 477.76 72.13C476.026 73.95 475.16 76.5717 475.16 79.995C475.16 83.4183 476.005 86.0617 477.695 87.925C479.428 89.745 481.595 90.655 484.195 90.655Z" fill="black" fill-opacity="0.6"/>
</svg>
