<svg width="245" height="53" viewBox="0 0 245 53" fill="none" xmlns="http://www.w3.org/2000/svg">
<path d="M45.2015 40.3271L25.859 51.5001L6.47279 40.3006C6.35315 39.1083 6.35315 37.9071 6.47279 36.7148C7.03096 36.7148 7.49991 36.6882 7.96695 36.7148C8.39603 36.7452 8.84978 36.599 9.29594 36.8363C9.43644 37.4058 9.30734 37.9752 9.39087 38.6491C14.7809 41.8286 20.3057 44.9132 25.8419 48.1668C31.3686 45.0024 36.8535 41.7869 42.3403 38.7117C42.6289 37.3033 42.3916 35.9916 42.3916 34.6818C42.3916 29.9679 42.3916 25.254 42.3916 20.5401V19.553C41.3569 18.9836 40.2842 18.4691 39.2685 17.744C39.8722 16.9847 40.5785 16.4039 41.2696 15.6844C42.6365 16.2919 43.8592 17.1764 45.2129 17.8731L45.2015 40.3271ZM43.0713 37.8594L43.0352 37.9126H43.0941L43.0713 37.8594Z" fill="#375CFD"/>
<path d="M45.899 7.88318C46.0018 8.22238 45.7371 8.45486 45.5675 8.62065C43.5429 10.6025 41.6344 12.7025 39.5564 14.6385C38.6174 15.5113 37.7717 16.5137 36.8289 17.394C35.1661 18.9433 33.4938 20.4792 31.7758 21.9675C30.2292 23.3014 28.6712 24.6353 27.0541 25.8873C24.399 27.9473 21.6639 29.8891 18.7231 31.5241C16.7392 32.6494 14.6419 33.5615 12.4662 34.2453C10.562 34.8266 8.55288 34.9795 6.58268 34.6931C4.7561 34.4378 3.25141 33.4068 2.10289 31.951C0.977229 30.5237 0.377257 28.8582 0.0115596 27.0936C-0.00385321 26.9301 -0.00385321 26.7654 0.0115596 26.6019C0.281039 26.7105 0.506827 26.9055 0.653435 27.1565C1.94075 28.8845 3.84768 30.0457 5.97319 30.396C8.24356 30.8095 10.472 30.6208 12.6834 30.0149C15.2164 29.3204 17.6677 28.3564 19.9954 27.1393C22.1156 26.0533 24.1757 24.8536 26.1665 23.5453C28.2464 22.1466 30.3321 20.7517 32.3282 19.2406C33.9795 17.9905 35.6385 16.7423 37.2175 15.3932C38.6517 14.166 40.1126 12.973 41.5049 11.6963C42.6477 10.6558 43.8191 9.66682 44.9333 8.59587C45.2001 8.29382 45.5297 8.05382 45.899 7.89271V7.88318Z" fill="#FFD839"/>
<path d="M36.8795 13.1928C36.1685 13.9042 35.3968 14.4411 34.5929 15.0728L25.8406 10.0398L9.3561 19.5537V28.7148C8.3891 28.8248 7.49984 28.8855 6.62196 28.582C6.43235 28.3543 6.51199 28.0906 6.51199 27.8497C6.51199 25.1008 6.51199 22.3481 6.51199 19.6049C6.51199 19.1345 6.56887 18.6564 6.38306 18.2959C6.42984 18.1289 6.5129 17.9743 6.6263 17.8432C6.73971 17.712 6.88066 17.6075 7.0391 17.5371C8.85743 16.4956 10.7023 15.4845 12.515 14.4373C14.6575 13.2023 16.7792 11.9331 18.9142 10.6867C21.0492 9.44033 23.1993 8.20343 25.3381 6.95514C25.7173 6.73508 26.0283 6.80148 26.3885 7.01205C27.8808 7.87713 29.3957 8.70616 30.8879 9.57123C32.6816 10.6089 34.4582 11.6732 36.2481 12.7147C36.4921 12.8241 36.7081 12.9875 36.8795 13.1928Z" fill="#375CFD"/>
<path d="M37.5888 19.4078V40.0091L31.7409 43.344C31.5703 42.6667 31.5032 32.173 31.6163 24.7327L37.5888 19.4078Z" fill="#D85EB4"/>
<path d="M28.9006 45.0172L25.8749 46.7127L22.8722 45.0229V31.2113C24.89 29.8949 26.8464 28.4071 28.9006 26.8545V45.0172Z" fill="#F15B50"/>
<path d="M20.2127 32.8832V43.3442C18.1129 42.288 16.2211 41.0294 14.1843 39.9373V35.745C16.1734 34.9462 18.2026 34.1343 20.2127 32.8832Z" fill="#FF9E21"/>
<path d="M51.6996 1.5C51.736 1.67354 51.7897 1.76889 51.7686 1.84517C51.6172 2.40202 49.2771 8.19172 49.0317 8.5922C48.6139 7.68636 48.5469 6.73476 48.2287 5.86898C47.1018 5.42655 45.8943 5.64204 44.6812 5.24347C47.0462 3.97912 49.3997 2.83491 51.6996 1.5Z" fill="#FFD839"/>
<path d="M45.9341 7.88323C46.0383 7.65245 46.2231 7.46763 46.4539 7.36345L46.4418 7.35132C46.4418 7.69784 46.2928 7.89536 45.922 7.8711L45.9341 7.88323Z" fill="#F38B24"/>
<path d="M46.4692 7.35138C46.489 7.25605 46.4824 7.12895 46.6296 7.19006C46.645 7.35382 46.5417 7.33182 46.4539 7.33427L46.4692 7.35138Z" fill="#F38B24"/>
<path d="M69.1303 18.525V24.65H77.3553V28.535H69.1303V35.01H78.4053V39H64.2303V14.535H78.4053V18.525H69.1303ZM89.5082 22.445C90.1382 21.5117 91.0016 20.7533 92.0982 20.17C93.2182 19.5867 94.4899 19.295 95.9132 19.295C97.5699 19.295 99.0632 19.7033 100.393 20.52C101.747 21.3367 102.808 22.5033 103.578 24.02C104.372 25.5133 104.768 27.2517 104.768 29.235C104.768 31.2183 104.372 32.98 103.578 34.52C102.808 36.0367 101.747 37.215 100.393 38.055C99.0632 38.895 97.5699 39.315 95.9132 39.315C94.4666 39.315 93.1949 39.035 92.0982 38.475C91.0249 37.8917 90.1616 37.145 89.5082 36.235V39H84.6082V13.1H89.5082V22.445ZM99.7632 29.235C99.7632 28.0683 99.5182 27.065 99.0282 26.225C98.5616 25.3617 97.9316 24.7083 97.1382 24.265C96.3682 23.8217 95.5282 23.6 94.6182 23.6C93.7316 23.6 92.8916 23.8333 92.0982 24.3C91.3282 24.7433 90.6982 25.3967 90.2082 26.26C89.7416 27.1233 89.5082 28.1383 89.5082 29.305C89.5082 30.4717 89.7416 31.4867 90.2082 32.35C90.6982 33.2133 91.3282 33.8783 92.0982 34.345C92.8916 34.7883 93.7316 35.01 94.6182 35.01C95.5282 35.01 96.3682 34.7767 97.1382 34.31C97.9316 33.8433 98.5616 33.1783 99.0282 32.315C99.5182 31.4517 99.7632 30.425 99.7632 29.235ZM118.689 39.315C116.822 39.315 115.142 38.9067 113.649 38.09C112.156 37.25 110.977 36.0717 110.114 34.555C109.274 33.0383 108.854 31.2883 108.854 29.305C108.854 27.3217 109.286 25.5717 110.149 24.055C111.036 22.5383 112.237 21.3717 113.754 20.555C115.271 19.715 116.962 19.295 118.829 19.295C120.696 19.295 122.387 19.715 123.904 20.555C125.421 21.3717 126.611 22.5383 127.474 24.055C128.361 25.5717 128.804 27.3217 128.804 29.305C128.804 31.2883 128.349 33.0383 127.439 34.555C126.552 36.0717 125.339 37.25 123.799 38.09C122.282 38.9067 120.579 39.315 118.689 39.315ZM118.689 35.045C119.576 35.045 120.404 34.835 121.174 34.415C121.967 33.9717 122.597 33.3183 123.064 32.455C123.531 31.5917 123.764 30.5417 123.764 29.305C123.764 27.4617 123.274 26.05 122.294 25.07C121.337 24.0667 120.159 23.565 118.759 23.565C117.359 23.565 116.181 24.0667 115.224 25.07C114.291 26.05 113.824 27.4617 113.824 29.305C113.824 31.1483 114.279 32.5717 115.189 33.575C116.122 34.555 117.289 35.045 118.689 35.045ZM141.568 39.315C139.982 39.315 138.558 39.035 137.298 38.475C136.038 37.8917 135.035 37.11 134.288 36.13C133.565 35.15 133.168 34.065 133.098 32.875H138.033C138.127 33.6217 138.488 34.24 139.118 34.73C139.772 35.22 140.577 35.465 141.533 35.465C142.467 35.465 143.19 35.2783 143.703 34.905C144.24 34.5317 144.508 34.0533 144.508 33.47C144.508 32.84 144.182 32.3733 143.528 32.07C142.898 31.7433 141.883 31.3933 140.483 31.02C139.037 30.67 137.847 30.3083 136.913 29.935C136.003 29.5617 135.21 28.99 134.533 28.22C133.88 27.45 133.553 26.4117 133.553 25.105C133.553 24.0317 133.857 23.0517 134.463 22.165C135.093 21.2783 135.98 20.5783 137.123 20.065C138.29 19.5517 139.655 19.295 141.218 19.295C143.528 19.295 145.372 19.8783 146.748 21.045C148.125 22.1883 148.883 23.74 149.023 25.7H144.333C144.263 24.93 143.937 24.3233 143.353 23.88C142.793 23.4133 142.035 23.18 141.078 23.18C140.192 23.18 139.503 23.3433 139.013 23.67C138.547 23.9967 138.313 24.4517 138.313 25.035C138.313 25.6883 138.64 26.19 139.293 26.54C139.947 26.8667 140.962 27.205 142.338 27.555C143.738 27.905 144.893 28.2667 145.803 28.64C146.713 29.0133 147.495 29.5967 148.148 30.39C148.825 31.16 149.175 32.1867 149.198 33.47C149.198 34.59 148.883 35.5933 148.253 36.48C147.647 37.3667 146.76 38.0667 145.593 38.58C144.45 39.07 143.108 39.315 141.568 39.315ZM162.391 39.315C160.804 39.315 159.381 39.035 158.121 38.475C156.861 37.8917 155.857 37.11 155.111 36.13C154.387 35.15 153.991 34.065 153.921 32.875H158.856C158.949 33.6217 159.311 34.24 159.941 34.73C160.594 35.22 161.399 35.465 162.356 35.465C163.289 35.465 164.012 35.2783 164.526 34.905C165.062 34.5317 165.331 34.0533 165.331 33.47C165.331 32.84 165.004 32.3733 164.351 32.07C163.721 31.7433 162.706 31.3933 161.306 31.02C159.859 30.67 158.669 30.3083 157.736 29.935C156.826 29.5617 156.032 28.99 155.356 28.22C154.702 27.45 154.376 26.4117 154.376 25.105C154.376 24.0317 154.679 23.0517 155.286 22.165C155.916 21.2783 156.802 20.5783 157.946 20.065C159.112 19.5517 160.477 19.295 162.041 19.295C164.351 19.295 166.194 19.8783 167.571 21.045C168.947 22.1883 169.706 23.74 169.846 25.7H165.156C165.086 24.93 164.759 24.3233 164.176 23.88C163.616 23.4133 162.857 23.18 161.901 23.18C161.014 23.18 160.326 23.3433 159.836 23.67C159.369 23.9967 159.136 24.4517 159.136 25.035C159.136 25.6883 159.462 26.19 160.116 26.54C160.769 26.8667 161.784 27.205 163.161 27.555C164.561 27.905 165.716 28.2667 166.626 28.64C167.536 29.0133 168.317 29.5967 168.971 30.39C169.647 31.16 169.997 32.1867 170.021 33.47C170.021 34.59 169.706 35.5933 169.076 36.48C168.469 37.3667 167.582 38.0667 166.416 38.58C165.272 39.07 163.931 39.315 162.391 39.315ZM203.698 22.13C203.698 23.4367 203.383 24.6617 202.753 25.805C202.146 26.9483 201.178 27.87 199.848 28.57C198.541 29.27 196.884 29.62 194.878 29.62H190.783V39H185.883V14.57H194.878C196.768 14.57 198.378 14.8967 199.708 15.55C201.038 16.2033 202.029 17.1017 202.683 18.245C203.359 19.3883 203.698 20.6833 203.698 22.13ZM194.668 25.665C196.021 25.665 197.024 25.3617 197.678 24.755C198.331 24.125 198.658 23.25 198.658 22.13C198.658 19.75 197.328 18.56 194.668 18.56H190.783V25.665H194.668ZM213.827 22.62C214.457 21.5933 215.273 20.7883 216.277 20.205C217.303 19.6217 218.47 19.33 219.777 19.33V24.475H218.482C216.942 24.475 215.775 24.8367 214.982 25.56C214.212 26.2833 213.827 27.5433 213.827 29.34V39H208.927V19.61H213.827V22.62ZM233.437 39.315C231.57 39.315 229.89 38.9067 228.397 38.09C226.904 37.25 225.725 36.0717 224.862 34.555C224.022 33.0383 223.602 31.2883 223.602 29.305C223.602 27.3217 224.034 25.5717 224.897 24.055C225.784 22.5383 226.985 21.3717 228.502 20.555C230.019 19.715 231.71 19.295 233.577 19.295C235.444 19.295 237.135 19.715 238.652 20.555C240.169 21.3717 241.359 22.5383 242.222 24.055C243.109 25.5717 243.552 27.3217 243.552 29.305C243.552 31.2883 243.097 33.0383 242.187 34.555C241.3 36.0717 240.087 37.25 238.547 38.09C237.03 38.9067 235.327 39.315 233.437 39.315ZM233.437 35.045C234.324 35.045 235.152 34.835 235.922 34.415C236.715 33.9717 237.345 33.3183 237.812 32.455C238.279 31.5917 238.512 30.5417 238.512 29.305C238.512 27.4617 238.022 26.05 237.042 25.07C236.085 24.0667 234.907 23.565 233.507 23.565C232.107 23.565 230.929 24.0667 229.972 25.07C229.039 26.05 228.572 27.4617 228.572 29.305C228.572 31.1483 229.027 32.5717 229.937 33.575C230.87 34.555 232.037 35.045 233.437 35.045Z" fill="black" fill-opacity="0.6"/>
</svg>
