<svg width="104" height="100" viewBox="0 0 104 100" fill="none" xmlns="http://www.w3.org/2000/svg">
<path d="M90.4024 77.654L51.7176 99.9998L12.9455 77.6008C12.7062 75.2163 12.7062 72.8139 12.9455 70.4294C14.0618 70.4294 14.9997 70.3762 15.9338 70.4294C16.7919 70.4901 17.6994 70.1978 18.5917 70.6723C18.8727 71.8113 18.6145 72.9502 18.7816 74.2979C29.5615 80.657 40.6111 86.8262 51.6834 93.3332C62.7367 87.0046 73.7065 80.5734 84.6801 74.4232C85.2573 71.6062 84.7827 68.9829 84.7827 66.3634C84.7827 56.9356 84.7827 47.5077 84.7827 38.0799V36.1058C82.7132 34.9669 80.5679 33.938 78.5365 32.4878C79.7439 30.9692 81.1564 29.8075 82.5386 28.3687C85.2725 29.5835 87.7178 31.3526 90.4251 32.7459L90.4024 77.654ZM86.142 72.7186L86.0699 72.8249H86.1876L86.142 72.7186Z" fill="#375CFD"/>
<path d="M91.7974 12.7661C92.0031 13.4445 91.4736 13.9095 91.1346 14.2411C87.0853 18.2047 83.2683 22.4046 79.1123 26.2768C77.2343 28.0224 75.543 30.0271 73.6574 31.7878C70.3318 34.8863 66.9873 37.9582 63.5512 40.9347C60.4581 43.6026 57.342 46.2704 54.1079 48.7744C48.7977 52.8943 43.3275 56.7779 37.4459 60.0479C33.4782 62.2985 29.2837 64.1228 24.9323 65.4903C21.1239 66.6529 17.1057 66.9587 13.1653 66.3859C9.51215 65.8752 6.50278 63.8134 4.20576 60.9016C1.95445 58.047 0.75451 54.716 0.0231191 51.1869C-0.00770637 50.8598 -0.00770637 50.5306 0.0231191 50.2036C0.562075 50.4207 1.01365 50.8108 1.30686 51.3126C3.88148 54.7687 7.69532 57.0912 11.9463 57.7917C16.487 58.6187 20.9439 58.2414 25.3666 57.0294C30.4326 55.6406 35.3352 53.7125 39.9906 51.2783C44.231 49.1064 48.351 46.7069 52.3328 44.0904C56.4926 41.293 60.6638 38.5032 64.656 35.4809C67.9586 32.9807 71.2766 30.4844 74.4345 27.7861C77.3029 25.3317 80.2247 22.9458 83.0093 20.3923C85.2949 18.3114 87.6376 16.3334 89.8661 14.1915C90.3996 13.5874 91.0588 13.1074 91.7974 12.7852V12.7661Z" fill="#FFD839"/>
<path d="M73.7586 23.3855C72.3365 24.8084 70.7931 25.8821 69.1853 27.1456L51.6808 17.0796L18.712 36.1074V54.4295C16.7781 54.6496 14.9996 54.771 13.2438 54.1639C12.8646 53.7086 13.0239 53.1812 13.0239 52.6993C13.0239 47.2016 13.0239 41.6962 13.0239 36.2099C13.0239 35.2689 13.1376 34.3128 12.766 33.5919C12.8596 33.2579 13.0257 32.9486 13.2525 32.6863C13.4793 32.4239 13.7612 32.2149 14.0781 32.0742C17.7147 29.9912 21.4045 27.9689 25.0297 25.8745C29.3148 23.4045 33.5582 20.8662 37.8282 18.3734C42.0981 15.8807 46.3984 13.4069 50.6759 10.9103C51.4343 10.4702 52.0562 10.603 52.7767 11.0241C55.7611 12.7543 58.7911 14.4123 61.7755 16.1425C65.3628 18.2179 68.916 20.3464 72.4958 22.4294C72.9838 22.6481 73.4156 22.9751 73.7586 23.3855Z" fill="#375CFD"/>
<path d="M75.1772 35.8159V77.0184L63.4814 83.6882C63.1402 82.3337 63.0061 61.3463 63.2322 46.4656L75.1772 35.8159Z" fill="#D85EB4"/>
<path d="M57.8008 87.0343L51.7495 90.4253L45.7441 87.0457V59.4226C49.7796 56.7899 53.6925 53.8142 57.8008 50.709V87.0343Z" fill="#F15B50"/>
<path d="M40.4252 62.7661V83.6881C36.2256 81.5758 32.4421 79.0585 28.3685 76.8743V68.4897C32.3467 66.8922 36.405 65.2683 40.4252 62.7661Z" fill="#FF9E21"/>
<path d="M103.399 0C103.471 0.347077 103.579 0.537778 103.537 0.69034C103.234 1.80404 98.5536 13.3834 98.063 14.1844C97.2273 12.3727 97.0932 10.4695 96.4569 8.73794C94.203 7.85309 91.7882 8.28407 89.3618 7.48694C94.0919 4.95824 98.7989 2.66982 103.399 0Z" fill="#FFD839"/>
<path d="M91.8678 12.7665C92.0761 12.3049 92.4458 11.9353 92.9073 11.7269L92.8831 11.7026C92.8831 12.3957 92.5851 12.7907 91.8435 12.7422L91.8678 12.7665Z" fill="#F38B24"/>
<path d="M92.938 11.7028C92.9775 11.5121 92.9644 11.2579 93.2588 11.3801C93.2895 11.7076 93.083 11.6636 92.9072 11.6685L92.938 11.7028Z" fill="#F38B24"/>
</svg>
